<?xml version="1.0" encoding="UTF-8" standalone="no"?>
<svg
   xmlns:dc="http://purl.org/dc/elements/1.1/"
   xmlns:cc="http://creativecommons.org/ns#"
   xmlns:rdf="http://www.w3.org/1999/02/22-rdf-syntax-ns#"
   xmlns:svg="http://www.w3.org/2000/svg"
   xmlns="http://www.w3.org/2000/svg"
   xmlns:sodipodi="http://sodipodi.sourceforge.net/DTD/sodipodi-0.dtd"
   xmlns:inkscape="http://www.inkscape.org/namespaces/inkscape"
   width="24"
   height="24"
   viewBox="0 0 24 24"
   version="1.1"
   id="svg4"
   sodipodi:docname="location-logo.svg"
   inkscape:version="1.0.1 (3bc2e813f5, 2020-09-07)">
  <metadata
     id="metadata10">
    <rdf:RDF>
      <cc:Work
         rdf:about="">
        <dc:format>image/svg+xml</dc:format>
        <dc:type
           rdf:resource="http://purl.org/dc/dcmitype/StillImage" />
        <dc:title></dc:title>
      </cc:Work>
    </rdf:RDF>
  </metadata>
  <defs
     id="defs8" />
  <sodipodi:namedview
     pagecolor="#ffffff"
     bordercolor="#666666"
     borderopacity="1"
     objecttolerance="10"
     gridtolerance="10"
     guidetolerance="10"
     inkscape:pageopacity="0"
     inkscape:pageshadow="2"
     inkscape:window-width="1920"
     inkscape:window-height="1016"
     id="namedview6"
     showgrid="false"
     inkscape:pagecheckerboard="true"
     inkscape:zoom="7.9107571"
     inkscape:cx="12"
     inkscape:cy="13.94988"
     inkscape:window-x="0"
     inkscape:window-y="0"
     inkscape:window-maximized="1"
     inkscape:current-layer="svg4" />
  <path
     d="M 12,0 C 6.478,0 2,4.395 2,9.815 2,15.32 6.375,19.083 12,24 17.625,19.083 22,15.32 22,9.815 22,4.395 17.522,0 12,0 Z"
     id="path2"
     sodipodi:nodetypes="sscss"
     style="fill:#f55c69;fill-opacity:1" />
  <style
     type="text/css"
     id="style1297">
	.st0{fill:#457AF5;}
	.st1{fill:#FFFFFF;}
</style>
  <g
     id="g1307"
     transform="matrix(0.08362049,0,0,0.08362049,6.1316132,3.3910585)">
	<path
   class="st0"
   d="m 79.87,3.27 c 0.01,-0.24 0.05,-0.48 0.08,-0.72 -2.92,1.19 -5.69,2.78 -8.25,4.61 -3.55,2.54 -6.06,6.04 -8.29,9.73 -0.14,0.23 -0.28,0.47 -0.5,0.63 -0.03,0.02 -0.06,0.04 -0.09,0.06 -0.21,0.12 -0.46,0.16 -0.67,0.05 -0.21,-0.11 -0.32,-0.36 -0.34,-0.59 -0.06,-0.72 0.31,-1.56 0.57,-2.22 1.48,-3.71 3.87,-6.97 6.55,-9.92 -2.11,-2.2 -4.81,-3.56 -7.8,-3.91 -0.14,2.32 -1.24,4.5 -2.85,6.3 -2.44,2.73 -6.14,3.86 -9.52,4.92 -6.5,2.05 -11.51,5.86 -15.4,11.21 0.05,0.02 0.11,0.03 0.17,0.04 2.25,0.69 4.39,1.79 6.37,3.05 1.64,1.05 4.89,2.79 4.7,5.08 -0.06,0.72 -0.43,1.18 -1.1,1.45 -2.19,0.86 -5.02,-2.01 -6.75,-3.05 -2,-1.2 -4.15,-2.22 -6.48,-2.56 -3.78,-0.54 -7.76,0.94 -9.01,4.8 -1.23,3.8 -0.08,7.71 2.09,10.91 1.33,1.95 3.03,3.61 4.74,5.22 1.21,1.14 3.84,3.39 2.93,5.28 -0.97,2.03 -4.94,-1.02 -5.82,-1.75 -0.7,-0.58 -1.36,-1.21 -2.01,-1.86 -1.72,7.03 -3.38,14.08 -5.11,21.11 -1.92,7.83 -4.43,15.82 -4.66,23.94 -0.19,6.59 1.69,12.71 5.68,17.97 3.58,4.71 8.37,8.46 13.38,11.53 6,3.68 12.5,6.56 19.25,8.62 -0.72,-6.67 0.48,-13.49 3.17,-19.62 2.59,-5.91 6.69,-11.04 11.88,-14.88 6.12,-4.53 13.41,-6.43 20.95,-6.7 8.49,-0.3 17.14,1.29 25.56,-0.36 3.4,-0.66 6.63,-1.87 9.49,-3.84 2.15,-1.49 3.54,-3.3 4.82,-5.33 -1.45,-0.24 -2.85,-0.88 -4.04,-1.92 -1.03,-0.9 -1.8,-2.02 -2.39,-3.23 -0.89,1.71 -2.04,3.28 -3.43,4.62 -3.94,3.81 -9.54,5.58 -14.97,5.07 -5.41,-0.51 -10.84,-2.86 -14.07,-7.37 -0.53,-0.73 -0.96,-1.53 -1.35,-2.35 -5.98,1.38 -11.69,3.76 -17.08,6.55 -1.23,0.64 -2.26,-0.81 -1.42,-1.75 4.17,-4.74 10.45,-7.38 16.62,-8.89 0.22,-0.05 0.44,-0.09 0.66,-0.15 -0.03,-0.24 -0.08,-0.47 -0.1,-0.71 -0.13,-2.26 0.42,-5.7 2.74,-6.73 0.95,-0.42 2.11,0.06 2.12,1.22 0.02,1.89 -0.9,3.54 -0.82,5.45 1.72,-0.26 3.46,-0.45 5.19,-0.54 2.16,-0.11 4.37,-0.4 6.47,0.27 0.74,0.24 1.47,0.61 1.91,1.23 0.12,0.16 0.21,0.35 0.27,0.54 0.17,0.53 0.1,1.13 -0.28,1.54 -0.35,0.38 -0.9,0.54 -1.42,0.65 -2.42,0.49 -4.89,0.03 -7.34,0.19 -1.07,0.07 -2.13,0.2 -3.19,0.35 0.32,0.43 0.67,0.84 1.06,1.22 2.94,2.84 6.97,4.56 11.04,4.72 4.08,0.17 8.12,-1.16 11,-4.12 1.25,-1.29 2.27,-2.83 2.91,-4.51 0.11,-0.28 0.19,-0.57 0.27,-0.85 -1.39,-0.76 -2.68,-1.88 -3.82,-2.74 -2.08,-1.56 -3.95,-3.96 -2.84,-6.7 1.04,-2.56 3.56,-3.8 5.98,-4.65 2.35,-0.83 4.86,-1.39 7.35,-1.09 1.8,0.21 4.11,0.96 4.63,2.96 0.17,0.66 0.1,1.34 -0.05,2.01 -0.06,0.24 -0.13,0.47 -0.2,0.7 -0.79,2.47 -2.12,4.7 -3.52,6.86 -0.4,0.62 -0.85,1.25 -1.35,1.8 0.19,1.12 0.47,2.21 0.98,3.21 0.79,1.54 2.74,3.3 4.61,2.55 3.52,-1.41 3.1,-7.86 3.15,-10.87 0.05,-3.39 -0.26,-7.18 -2.87,-9.65 -2.35,-2.22 -5.62,-3.2 -7.88,-5.57 -1.13,-1.18 -1.81,-2.51 -2.27,-3.92 -0.78,0.39 -1.67,0.63 -2.62,0.63 -3.1,0 -5.6,-2.34 -5.6,-5.22 0,-2.88 2.51,-5.22 5.6,-5.22 0.33,0 0.65,0.04 0.96,0.09 -0.41,-1.75 -1,-3.45 -1.76,-5.08 -0.59,-0.33 -1.19,-0.54 -1.92,-0.69 -0.92,-0.19 -1.88,0.06 -2.7,0.51 -1.23,0.68 -2.06,1.97 -3.36,2.53 -0.12,0.05 -0.24,0.09 -0.36,0.12 -0.35,0.08 -0.73,0.07 -1.04,-0.1 -0.46,-0.24 -0.72,-0.74 -0.81,-1.24 -0.16,-0.92 0.19,-1.87 0.74,-2.62 1.2,-1.64 3.18,-2.86 5.17,-3.24 0.45,-0.08 0.9,-0.13 1.36,-0.15 -3.42,-4.52 -8.01,-7.55 -13.42,-9.83 -3.33,-1.4 -6.66,-3.03 -8.67,-6.18 -1.08,-1.69 -1.67,-3.6 -1.65,-5.51 -4.87,1.56 -9.06,4.58 -12.2,8.75 -0.68,0.9 -1.99,0.15 -1.51,-0.88 1.14,-2.5 2.76,-4.71 4.7,-6.6 C 79.98,6.57 79.78,4.82 79.87,3.27 Z M 21.75,95.19 c -0.54,1.04 -2.17,0.53 -2.17,-0.59 0.01,-1.68 0.18,-3.38 0.45,-5.04 0.26,-1.61 0.66,-3.16 1.11,-4.73 0.3,-1.05 1.36,-1.6 2.4,-1.36 1.07,0.24 1.56,1.4 1.36,2.4 -0.33,1.6 -0.69,3.15 -1.21,4.7 -0.53,1.57 -1.18,3.15 -1.94,4.62 z m 5.75,6.39 c -0.58,2.85 -1.51,5.62 -2.76,8.25 -0.17,0.35 -0.35,0.71 -0.67,0.92 -0.47,0.31 -1.17,0.2 -1.51,-0.26 -0.3,-0.4 -0.3,-0.94 -0.27,-1.43 0.13,-2.89 0.61,-5.77 1.41,-8.55 0.05,-0.16 0.1,-0.33 0.16,-0.49 0.1,-0.27 0.22,-0.53 0.4,-0.75 0.47,-0.57 1.28,-0.77 1.98,-0.61 1.39,0.31 1.49,1.77 1.26,2.92 z m 9.04,-17.14 c -0.3,2.35 -0.8,4.67 -1.48,6.93 -0.34,1.13 -0.73,2.25 -1.16,3.35 -0.27,0.7 -0.54,1.98 -1.33,2.27 -0.48,0.18 -1.05,-0.07 -1.34,-0.5 -0.5,-0.76 -0.19,-2.16 -0.14,-3.02 0.07,-1.14 0.19,-2.28 0.35,-3.41 0.33,-2.3 0.85,-4.58 1.6,-6.78 0.16,-0.48 0.39,-0.97 0.75,-1.31 0.22,-0.21 0.48,-0.36 0.8,-0.43 0.86,-0.17 1.72,0.46 1.94,1.28 0.14,0.53 0.08,1.08 0.01,1.62 z m 2.22,-44.6 c -1.07,0.69 -2.54,0.2 -3.18,-0.83 -0.15,-0.25 -0.31,-0.49 -0.48,-0.73 -0.01,-0.02 -0.02,-0.03 -0.03,-0.05 -0.08,-0.1 -0.17,-0.2 -0.25,-0.3 -0.34,-0.39 -0.71,-0.76 -1.1,-1.11 -0.22,-0.19 -0.44,-0.37 -0.67,-0.55 -0.04,-0.03 -0.09,-0.07 -0.13,-0.11 -0.02,-0.01 -0.08,-0.05 -0.17,-0.12 -0.43,-0.3 -0.85,-0.62 -1.28,-0.9 -0.9,-0.59 -1.89,-1.01 -2.86,-1.49 -0.82,-0.41 -1.83,-0.7 -2.77,-0.81 -0.69,-0.08 -0.82,-0.94 -0.16,-1.19 1.21,-0.46 2.41,-0.73 3.71,-0.86 1.25,-0.13 2.59,0.18 3.77,0.56 2.73,0.89 4.92,2.9 6.43,5.3 0.7,1.11 0.2,2.52 -0.83,3.19 z m 62.49,21.94 c 2.59,1.03 1.57,5.28 -1.17,4.37 -4.36,-1.44 -8.78,-1.78 -13.33,-1.74 -4.87,0.04 -9.68,0.45 -14.41,1.65 -1.06,0.27 -1.7,-1.24 -0.74,-1.82 4.47,-2.71 9.79,-4.06 14.93,-4.4 4.82,-0.32 10.18,0.14 14.72,1.94 z M 88.32,48.84 c 0,3.05 -2.65,5.52 -5.92,5.52 -3.27,0 -5.92,-2.47 -5.92,-5.52 0,-3.05 2.65,-5.52 5.92,-5.52 3.27,0 5.92,2.47 5.92,5.52 z M 81.8,30.67 c 1.68,0.4 4.58,1.2 4.54,3.37 -0.02,1.19 -0.99,2.2 -2.17,2.27 -0.82,0.05 -1.51,-0.4 -2.22,-0.74 -1.56,-0.74 -3.4,-0.81 -5.07,-0.36 -1.67,0.45 -3.18,1.4 -4.44,2.59 -0.84,0.79 -1.57,1.69 -2.23,2.63 -0.17,0.25 -0.56,1.06 -0.98,1.49 -0.29,0.29 -0.59,0.4 -0.85,0.03 -0.13,-0.19 -0.17,-0.42 -0.2,-0.65 -0.52,-3.83 1.24,-7.46 4.58,-9.4 0.79,-0.46 1.63,-0.82 2.5,-1.08 2.12,-0.62 4.39,-0.66 6.54,-0.15 z"
   id="path1299"
   style="fill:#ffffff;fill-opacity:1" />

	<path
   class="st1"
   d="m 105.89,127.58 c 7.82,-8.62 5.03,-21.21 0.2,-30.56 -12.22,0.3 -24.78,-2.45 -35.66,4.79 -5.14,3.42 -9.14,8.49 -11.55,14.16 -2.52,5.94 -3.05,12.19 -2.52,18.55 4.56,1.11 9.2,1.86 13.88,2.19 11.79,0.82 27.1,0.29 35.65,-9.13 z"
   id="path1301" />

	<path
   class="st0"
   d="m 105.97,147.1 c 4.05,-2.84 6.55,-6.88 8.13,-11.5 1.54,-4.51 2.73,-9.28 2.34,-14.08 -0.15,-1.8 -0.58,-3.52 -1.22,-5.16 -0.44,5.99 -2.72,11.68 -7.76,16.2 -1.66,1.48 -3.48,2.71 -5.41,3.76 0.91,2.42 1.75,4.88 2.61,7.32 0.35,1.01 1.03,2.32 1.31,3.46 z"
   id="path1303"
   style="fill:#ffffff;fill-opacity:1" />

	<path
   class="st0"
   d="m 8.98,118.87 c 2.99,7.26 9.4,12.65 15.78,16.88 6.25,4.14 13.12,7.29 20.18,9.77 13.81,4.86 28.59,7.55 43.26,7.57 0.58,-4.2 0.97,-8.43 1.46,-12.65 -0.13,0.02 -0.26,0.05 -0.38,0.07 -7.16,1.19 -14.5,1.33 -21.72,0.6 -14.22,-1.44 -28.37,-6.19 -40.22,-14.28 -5.43,-3.71 -10.44,-8.22 -13.93,-13.84 -1.95,-3.14 -3.23,-6.53 -3.95,-10.05 -0.78,1.51 -1.43,3.09 -1.72,4.9 -0.6,3.7 -0.19,7.56 1.24,11.03 z"
   id="path1305"
   style="fill:#ffffff;fill-opacity:1" />

</g>
</svg>
