<svg width="18" height="18" viewBox="0 0 18 18" fill="none" xmlns="http://www.w3.org/2000/svg">
  <g clip-path="url(#clip0)">
    <path d="M11.9316 9.09249L17.9999 12.9287V5.09424L11.9316 9.09249Z" fill="white" />
    <path d="M0 5.09424V12.9287L6.06825 9.09249L0 5.09424Z" fill="white" />
    <path
      d="M16.8749 2.8125H1.12494C0.563566 2.8125 0.118066 3.231 0.0336914 3.76988L8.99994 9.67725L17.9662 3.76988C17.8818 3.231 17.4363 2.8125 16.8749 2.8125Z"
      fill="white" />
    <path
      d="M10.9014 9.77163L9.30951 10.8201C9.21501 10.882 9.10813 10.9124 9.00013 10.9124C8.89213 10.9124 8.78526 10.882 8.69076 10.8201L7.09888 9.77051L0.0361328 14.2379C0.122758 14.7723 0.566008 15.1874 1.12513 15.1874H16.8751C17.4343 15.1874 17.8775 14.7723 17.9641 14.2379L10.9014 9.77163Z"
      fill="white" />
  </g>
  <defs>
    <clipPath id="clip0">
      <rect width="18" height="18" fill="white" />
    </clipPath>
  </defs>
</svg>