<svg width="31" height="31" viewBox="0 0 31 31" fill="none" xmlns="http://www.w3.org/2000/svg">
  <path
    d="M29.2503 22.265V26.39C29.2518 26.773 29.1734 27.152 29.02 27.5029C28.8666 27.8537 28.6416 28.1687 28.3594 28.4276C28.0772 28.6865 27.7441 28.8836 27.3813 29.0062C27.0185 29.1289 26.6342 29.1745 26.2528 29.14C22.0217 28.6803 17.9574 27.2345 14.3865 24.9188C11.0643 22.8077 8.24761 19.991 6.13652 16.6688C3.81274 13.0817 2.36661 8.99763 1.91527 4.74751C1.88091 4.36728 1.9261 3.98406 2.04796 3.62225C2.16982 3.26043 2.36568 2.92796 2.62308 2.64599C2.88047 2.36402 3.19376 2.13874 3.54299 1.98448C3.89222 1.83022 4.26974 1.75037 4.65152 1.75001H8.77652C9.44382 1.74344 10.0907 1.97974 10.5967 2.41487C11.1027 2.84999 11.4331 3.45425 11.5265 4.11501C11.7006 5.4351 12.0235 6.73126 12.489 7.97876C12.674 8.47091 12.7141 9.00577 12.6044 9.51997C12.4947 10.0342 12.24 10.5062 11.8703 10.88L10.124 12.6263C12.0814 16.0686 14.9316 18.9189 18.374 20.8763L20.1203 19.13C20.4941 18.7603 20.9661 18.5056 21.4803 18.3959C21.9945 18.2862 22.5294 18.3263 23.0215 18.5113C24.269 18.9768 25.5652 19.2997 26.8853 19.4738C27.5532 19.568 28.1632 19.9044 28.5993 20.4191C29.0353 20.9337 29.267 21.5907 29.2503 22.265Z"
    stroke="white" stroke-width="2.5" stroke-linecap="round" stroke-linejoin="round" />
</svg>